<?xml version="1.0" encoding="UTF-8" standalone="no"?><!DOCTYPE svg PUBLIC "-//W3C//DTD SVG 1.1//EN" "http://www.w3.org/Graphics/SVG/1.1/DTD/svg11.dtd"><svg width="100%" height="100%" viewBox="0 0 512 512" version="1.1" xmlns="http://www.w3.org/2000/svg" xmlns:xlink="http://www.w3.org/1999/xlink" xml:space="preserve" xmlns:serif="http://www.serif.com/" style="fill-rule:evenodd;clip-rule:evenodd;stroke-linejoin:round;stroke-miterlimit:2;"><path d="M464,64l-416,0c-26.51,0 -48,21.49 -48,48l0,288c0,26.51 21.49,48 48,48l416,0c26.51,0 48,-21.49 48,-48l0,-288c0,-26.51 -21.49,-48 -48,-48Zm-6,336l-404,0c-3.292,0 -6,-2.708 -6,-6l0,-276c0,-3.292 2.708,-6 6,-6l404,0c3.292,0 6,2.708 6,6l0,276c0,3.292 -2.708,6 -6,6Zm-330,-248c-22.091,0 -40,17.909 -40,40c0,22.091 17.909,40 40,40c22.091,0 40,-17.909 40,-40c0,-22.091 -17.909,-40 -40,-40Zm-32,200l320,0l0,-80l-87.515,-87.515c-4.686,-4.686 -12.284,-4.686 -16.971,0l-119.514,119.515l-39.515,-39.515c-4.686,-4.686 -12.284,-4.686 -16.971,0l-39.514,39.515l0,48Z" style="fill:#b6b6b6;fill-rule:nonzero;"/></svg>